
<global>
amp_veltrack=0
ampeg_release=0.50
xfin_hicc1=24
xfout_hicc1=127
xfout_locc1=127
</global>

<group>
group_label=Group_0-45
lpc_hicc1=42
lpc_locc1=0

<region>
hikey=a3
hivel=127
lokey=g#3
loop_end=283212
loop_mode=loop_continuous
loop_start=81035
loop_xfade=24204
lovel=1
lpc=OULCQW0fF8LF8IhA5a0mP++WW0HWzqK/fSlcv1/BG8B/wy0+g2mJv02e770/7ZQ/NO9jvy3UMr6aqXg+7E9pvz3ddD7OzPY/C1APPjqlyb4EFCE91OmWv6c6KL8MhpU/
lpc_rms=-40.52
pitch_keycenter=a3
sample=Alto_trill_semitone_PP_A3.opus
</region>

<region>
hikey=a4
hivel=127
lokey=g#4
loop_end=287171
loop_mode=loop_continuous
loop_start=82168
loop_xfade=24542
lovel=1
lpc=JAb5Qa6/asJ5Lv9BY9U1wZiChUEFAUHBTwHqQBdZlMB/i5U+4gm8P87YfD/3Ie/AUnUEQQMBKMA9rhLAqhh3QA6uM8CWdmc/CeGtP4As7b8P0A6+D0QyQDjPub/6EL0+
lpc_rms=-33.36
offset=4708
pitch_keycenter=a4
sample=Alto_trill_semitone_PP_A4.opus
</region>

<region>
hikey=a5
hivel=127
lokey=g#5
loop_end=276396
loop_mode=loop_continuous
loop_start=79085
loop_xfade=23621
lovel=1
lpc=IRu5QUFLAMJ13DJBzRgJwQPOg0Hns/LAYPxcQIdHFsA/TCK/0fRIQJkT3T7ML4DATep5QFI6PcABR2A/qmmXQGJFdcD7pwBAfURyv+F/EEDgdI+/KXvxvperYL/aSe8+
lpc_rms=-26.05
offset=1275
pitch_keycenter=a5
sample=Alto_trill_semitone_PP_A5.opus
</region>

<region>
hikey=b3
hivel=127
lokey=a#3
loop_end=284304
loop_mode=loop_continuous
loop_start=81348
loop_xfade=24297
lovel=1
lpc=PsgvQm+jmcKDucRBcyMDwDNkbUGcsazAsQsQQV1GBsCJ/R3ANQ3+wD+AMUB8shtAPsYHv2gyo79aN7u/gTJxP+17oEC+y34/uk6lwAzvuz8jxBM/NFRDvyI/t8AmwLRA
lpc_rms=-34.64
pitch_keycenter=b3
sample=Alto_trill_semitone_PP_B3.opus
</region>

<region>
hikey=b4
hivel=127
lokey=a#4
loop_end=287331
loop_mode=loop_continuous
loop_start=82214
loop_xfade=24556
lovel=1
lpc=EKqjQerVBcLQbXVBvw4pwe4iOEHMerbAf2MQQcQToMDf2BZAhcqJwIYRJUCjm3jATjOPQL71PcDvAUm/Z10ZQI/78T7PHcE/BVUTv40Bnb9tF5e/b23pP1zeZ8Dm1GBA
lpc_rms=-33.36
pitch_keycenter=b4
sample=Alto_trill_semitone_PP_B4.opus
</region>

<region>
hikey=b5
hivel=127
lokey=a#5
loop_end=275234
loop_mode=loop_continuous
loop_start=78752
loop_xfade=23522
lovel=1
lpc=PsZgQcpKacFSEAdA2kO3v7FdzUBbo1nA8YeYP4/SO7/FETg/pvKQP3pDBEA5xn7AKf90QLbXlr+Us1U+JVyaPxYkxL+daLs9EtaWPxilBkCvP62/+JUVv5iI9L8rI4g/
lpc_rms=-28.57
pitch_keycenter=b5
sample=Alto_trill_semitone_PP_B5.opus
</region>

<region>
hikey=c#4
hivel=127
lokey=c4
loop_end=281999
loop_mode=loop_continuous
loop_start=80688
loop_xfade=24100
lovel=1
lpc=PGZ+Qi7z3cKnE9RBJqE7QUN51kHSS5jBbIrLQBOb2kAw5SXBBZ9kwK18K7+/8cg/epi8vgw79b71LwZAWMqXv/hnx0CWeIq/Uh+2wKgLBD/8HbU/lUN4QE+ADMHgtrZA
lpc_rms=-29.42
pitch_keycenter=c#4
sample=Alto_trill_semitone_PP_C#4.opus
</region>

<region>
hikey=c#5
hivel=127
lokey=c5
loop_end=281474
loop_mode=loop_continuous
loop_start=80538
loop_xfade=24055
lovel=1
lpc=ff7aQdcSN8L8yp5B8QoMwYRkg0GAXlbBO4onQQSVlr+eNL6/TZfqv4HxOUDywcrAmUuOQOnOw78/1m6+bXxlQJSxvj5Puby/yYK4P5EimL622QTAhmWmP7J0msBrHLhA
lpc_rms=-30.85
offset=1016
pitch_keycenter=c#5
sample=Alto_trill_semitone_PP_C#5.opus
</region>

<region>
hikey=c#6
hivel=127
lokey=c6
loop_end=282056
loop_mode=loop_continuous
loop_start=80704
loop_xfade=24105
lovel=1
lpc=i5qDQVsZIMH3WlHAb82KwFBu7ED3RRk9Ng1FQBG32L5JGxHAWosEQEzzsUBzVIC/Eij7P3oDJcD0xl2+A5duQNgq0T/hNmo/8n5jvXdxgr9wJzDAIQZ0vfJeb0BAprc/
lpc_rms=-24.78
offset=842
pitch_keycenter=C#6
sample=Alto_trill_semitone_PP_C#6.opus
</region>

<region>
hikey=d#4
hivel=127
lokey=d4
loop_end=279477
loop_mode=loop_continuous
loop_start=79966
loop_xfade=23884
lovel=1
lpc=pIk2QnxyrsI/KjxC3VKfwfW90UFvl1zBT6rsQBtbZsA9ZAfAHCIuQNs5jT9oG/rAnYyIQFwA4L6QTX0/pjn3PxJ7CsASkP0/KsH/v42OjD9vx90/Z9OTwF6Kz79b0Y1A
lpc_rms=-29.90
offset=295
pitch_keycenter=d#4
sample=Alto_trill_semitone_PP_D#4.opus
</region>

<region>
hikey=d#5
hivel=127
lokey=d5
loop_end=282034
loop_mode=loop_continuous
loop_start=80698
loop_xfade=24103
lovel=1
lpc=jDIFQiSoS8KRxrNB1weTwYz61UHox2zBR85eQXEOJsFOz4BA9xrkvxYJekBq1wrB9v4AQbfxvcCkgGJAyzpNQLfsDcCm8z5AUpj3vpxfRD+/jIrAS44HQIbwa8DUcsJA
lpc_rms=-27.28
offset=3730
pitch_keycenter=d#5
sample=Alto_trill_semitone_PP_D#5.opus
</region>

<region>
hikey=f4
hivel=127
lokey=e4
loop_end=284600
loop_mode=loop_continuous
loop_start=81432
loop_xfade=24322
lovel=1
lpc=KXgtQlPMtcKfUlZCMKyNwepR5EGZ1JjBW/rCQNujgcCqkow/YrARv6ZugUDoB0XBA6ZHQY0FvsCxX8e+tgmlQIVYOsBh0gVAd0eMv78JHcBRWec/2BGQP1sAjsBw6l1A
lpc_rms=-30.35
pitch_keycenter=f4
sample=Alto_trill_semitone_PP_F4.opus
</region>

<region>
hikey=f5
hivel=127
lokey=e5
loop_end=283354
loop_mode=loop_continuous
loop_start=81076
loop_xfade=24216
lovel=1
lpc=LKxIQo+Gm8K2JNhBQ3VxwdKKAEIiO3PBizBUQUHoG8Hs1MO/F9VNPv0zAkEJqYHB6+F7QTmjBMHHel8/AmMHQdn2qcDDgnQ/2AETwN4IzT+ATce/LWdhQC5ch0BXNpvA
lpc_rms=-23.37
offset=719
pitch_keycenter=f5
sample=Alto_trill_semitone_PP_F5.opus
</region>

<region>
hivel=127
key=g3
loop_end=284353
loop_mode=loop_continuous
loop_start=81362
loop_xfade=24301
lovel=1
lpc=6Vx3QplJ8MLWvjFCQMI3QaBPkUGGEi7BkJiUwCY39b+J9VU/YguVP+p5oz9ZeRfAyFE0P0xcNj0o/aW/ZN6rPyIDVT26nA+9QBmqP581uD1gIO++8kGDv6yvJ8AZBTxA
lpc_rms=-32.96
sample=Alto_trill_semitone_PP_G3.opus
</region>

<region>
hikey=g4
hivel=127
lokey=f#4
loop_end=276749
loop_mode=loop_continuous
loop_start=79186
loop_xfade=23651
lovel=1
lpc=UPmlQm+NJ8MUGrJCnBOlwRN7HEJeAMTBw614QQdm88CyFwzBWl2ZP+hM30D0Q5HBmkChQZvbEsEEbn/AoyZpQT1e/MBfizo/ZfkFQHvaKcBvQ6G+tnyCv7TrI77jwixA
lpc_rms=-26.81
offset=487
pitch_keycenter=g4
sample=Alto_trill_semitone_PP_G4.opus
</region>

<region>
hikey=g5
hivel=127
lokey=f#5
loop_end=281010
loop_mode=loop_continuous
loop_start=80405
loop_xfade=24015
lovel=1
lpc=Id0TQg0xWcK2kMRBSp2PwX2+xkE1ZzzBJI8kQQKHGsAYSH3BtROIQdGLqcDIklY/UfWXQLMvaMDG0yhASuovP4F3sL4k1DPAr8BqQCS6v78/pf2/etbQQKYVoL8L56K/
lpc_rms=-24.06
offset=3979
pitch_keycenter=g5
sample=Alto_trill_semitone_PP_G5.opus
</region>
</group>

<group>
group_label=Group_46-90
lpc_hicc1=84
lpc_locc1=43

<region>
hikey=a3
hivel=127
lokey=g#3
loop_end=286685
loop_mode=loop_continuous
loop_start=82029
loop_xfade=24500
lovel=1
lpc=rAQpQh89w8IZk4hC5IS/wbuI5UF+jJnBB4bzQIvPJ8EK7oU/T8MGQQlhf8Do+xHAMzxRQI/ElsAFVKW+zjDnQKeTrsBsFJ1Aj+/Bvza7icBcV35AuKm+v64kxb7YFBY/
lpc_rms=-29.59
pitch_keycenter=a3
sample=Alto_trill_semitone_MF_A3.opus
</region>

<region>
hikey=a4
hivel=127
lokey=g#4
loop_end=288862
loop_mode=loop_continuous
loop_start=82652
loop_xfade=24686
lovel=1
lpc=x4z4QbrNkMJMSGVCY4TRwfm5zkHig7/B1O6CQdFyfMFd6U9B9XdqwFVzV0DJg2fBAtaWQZuPZMHA7lJAGe7aQB3r2sAqETdA+dd6PQvC2b5YGLM/4U1UvzJpK8B1KRlA
lpc_rms=-25.39
offset=3304
pitch_keycenter=a4
sample=Alto_trill_semitone_MF_A4.opus
</region>

<region>
hikey=a5
hivel=127
lokey=g#5
loop_end=283097
loop_mode=loop_continuous
loop_start=81002
loop_xfade=24194
lovel=1
lpc=Ey2NQRkWvsFyaB1BejBvwDRO5kAP57rAzB6+QKDHE7/uM5nAMMuZQJN/uL7n46W/I8BeQKq+YMCLx7U/eJg+QGxb0r/5Njm/1ak4P9/WQEBQDRHApgECQCH1y78PvOe+
lpc_rms=-20.64
offset=975
pitch_keycenter=a5
sample=Alto_trill_semitone_MF_A5.opus
</region>

<region>
hikey=b3
hivel=127
lokey=a#3
loop_end=279292
loop_mode=loop_continuous
loop_start=79913
loop_xfade=23869
lovel=1
lpc=+KgCQgezlML4tkxClgqIwdHVpkHypozBji4qQR+aGMFg+EhAY8tHwN8K2UAarZfAiB6qQCGq4sBaXWs/S5BMQB0O2D7bVSO/QKbrv0F5Az5bozpAKisgwISi/bw9vCE/
lpc_rms=-29.16
pitch_keycenter=b3
sample=Alto_trill_semitone_MF_B3.opus
</region>

<region>
hikey=b4
hivel=127
lokey=a#4
loop_end=285872
loop_mode=loop_continuous
loop_start=81796
loop_xfade=24431
lovel=1
lpc=74P0QTgIjMJg6WFCFQjzwW0o+EEkxt7B4H6nQb6VbsH2D5RAVFoQQC2/lz+0ggrBuPE9QYe6ScFBp8VAixuCQKY+yMAWtqVA19JPwJMDMECur1zASMy3QHJbEcFCpK9A
lpc_rms=-22.70
offset=1177
pitch_keycenter=b4
sample=Alto_trill_semitone_MF_B4.opus
</region>

<region>
hikey=b5
hivel=127
lokey=a#5
loop_end=275144
loop_mode=loop_continuous
loop_start=78727
loop_xfade=23514
lovel=1
lpc=T/2SQSzIs8Fgv/hAqjtrwLTR8kBe64jAAC6zQNK1UcAC0WM+7PC3vvEyh0APlo+/7o+QQJbIPcCEYEDAr/1lQJyxYD6RmB5AcJsbv4hMjj+5MB3ACVBmQCSLycA1ro5A
lpc_rms=-21.43
offset=13600
pitch_keycenter=b5
sample=Alto_trill_semitone_MF_B5.opus
</region>

<region>
hikey=c#4
hivel=127
lokey=c4
loop_end=282193
loop_mode=loop_continuous
loop_start=80744
loop_xfade=24116
lovel=1
lpc=PJMsQhJkz8Jl05dCBWy8wcEU90FCOwbCIxqmQZmigcGUgo5ASjKaQMlh574XuODA4Nb/QEEj0sBvHKg+jSEaQf1PCcGUPVdAhV8XP1MtysACjpdAInMCQHyjgsBx2ug/
lpc_rms=-23.56
offset=742
pitch_keycenter=c#4
sample=Alto_trill_semitone_MF_C#4.opus
</region>

<region>
hikey=c#5
hivel=127
lokey=c5
loop_end=281969
loop_mode=loop_continuous
loop_start=80680
loop_xfade=24097
lovel=1
lpc=V/K5QY9qP8KU1AhC7kWFwcX9jkHpK3nBnkU9QWZSBsE4bvg/+8eBQPI+D8Bgr4nAKqryQOk5vcD71/s+niN1QKDQccCc9k1AuZGvv+QbRUDlqv+/CdE4P3pt2MAxIMpA
lpc_rms=-23.62
offset=719
pitch_keycenter=c#5
sample=Alto_trill_semitone_MF_C#5.opus
</region>

<region>
hikey=c#6
hivel=127
lokey=c6
loop_end=280708
loop_mode=loop_continuous
loop_start=80319
loop_xfade=23990
lovel=1
lpc=G17rQRNyoMGNnlnA6IodP9nRAEFn1KI9FxOOQOgFWECCo/W8yae4QCe3sEAB9hLApWvdQLKdtT9N+nK/OUwMQcly+j99YNU/GH2NQBBD6b+w5cvASCleP0VdJ0G2jjBA
lpc_rms=-15.39
offset=3270
pitch_keycenter=C#6
sample=Alto_trill_semitone_MF_C#6.opus
</region>

<region>
hikey=d#4
hivel=127
lokey=d4
loop_end=276146
loop_mode=loop_continuous
loop_start=79013
loop_xfade=23600
lovel=1
lpc=ZfMZQsFxr8Kq/3JCqdm2wUpV80EHsMvB/Y9VQUm9IcGJAtU/wvJIQHfZDkCH/T3BnAJYQVPrAcHq9VlAPDI7QKh2ssCv2oZAQzKAwAENGUCsO/c/PDkuwN+VtL9IDf0/
lpc_rms=-22.71
offset=1387
pitch_keycenter=d#4
sample=Alto_trill_semitone_MF_D#4.opus
</region>

<region>
hikey=d#5
hivel=127
lokey=d5
loop_end=286132
loop_mode=loop_continuous
loop_start=81871
loop_xfade=24453
lovel=1
lpc=HEv/QXc4SsKnjqtBYIL3wDqSjUGsTlvBCv4IQYzKecAEFTM/lKnzP4tqgkCbnlDB3mg0QdRtkcAML0g+0+6VQB6/KcDl3uc/0XahP0I24D/8cKbA0WkFvoezK77AmJZA
lpc_rms=-18.58
offset=4663
pitch_keycenter=d#5
sample=Alto_trill_semitone_MF_D#5.opus
</region>

<region>
hikey=f4
hivel=127
lokey=e4
loop_end=287637
loop_mode=loop_continuous
loop_start=82301
loop_xfade=24582
lovel=1
lpc=uC5PQuLnB8OjKPdCeZpowvD+SUKkw2HCM2UsQg9Z2MGRv75A1ssKQayS6b/YAZPBHNXgQYYAo8GTf9BANusBQWtXdsEvZDVBoWBzwG93gEBuAtHA7a82QOmKq78/lKw/
lpc_rms=-20.18
offset=1435
pitch_keycenter=f4
sample=Alto_trill_semitone_MF_F4.opus
</region>

<region>
hikey=f5
hivel=127
lokey=e5
loop_end=280852
loop_mode=loop_continuous
loop_start=80360
loop_xfade=24002
lovel=1
lpc=pylgQtaEy8J/tmhCZh/mwbxSI0J1h+nB7RqYQemKDcGldizBeDqJQUzm878bXF3BQIqGQTmEcMHwIg5BXxQqQZKuEMFPjgW+BESdwGj1kUCDuwDBgxyAQa+DYMCH/z3A
lpc_rms=-14.66
offset=1054
pitch_keycenter=f5
sample=Alto_trill_semitone_MF_F5.opus
</region>

<region>
hivel=127
key=g3
loop_end=275830
loop_mode=loop_continuous
loop_start=78923
loop_xfade=23573
lovel=1
lpc=5gw4Qusm0sLPtI1CK12cwXEIxEHZMqTB4FX2QAFVpcA+aCjA/TnhQFLhyr+1FbjAbZnZQK57hsDe3mm+/SkFQZ53A8Fmoc2+j152QAZnAsCaYylAEgYrv003isDB1T1A
lpc_rms=-31.03
sample=Alto_trill_semitone_MF_G3.opus
</region>

<region>
hikey=g4
hivel=127
lokey=f#4
loop_end=281499
loop_mode=loop_continuous
loop_start=80545
loop_xfade=24057
lovel=1
lpc=Qv16QusxHMM70wFD6URqwsVyZULr3VHC1O8IQoe53sG/FBxBt9V2QPDQi0Bc8qrBeFX0QQEOysHG3gVBfkcsQXgGksGGylFBSfC4wKETk0Bomcu/2CMLPmYo88BMUM9A
lpc_rms=-19.69
offset=801
pitch_keycenter=g4
sample=Alto_trill_semitone_MF_G4.opus
</region>

<region>
hikey=g5
hivel=127
lokey=f#5
loop_end=278700
loop_mode=loop_continuous
loop_start=79744
loop_xfade=23818
lovel=1
lpc=Zlr4QS4eJ8IzL0pBHvy1wNV2gEEkMeXAkHcsQIeg7z8OOg7B2i4KQdflCUDvGqTA14XDQFux7cC7HdJAw4VqQOYllcBgzDnA03d3QG+tjEBkUpPASsN/QNAmc7/do3m+
lpc_rms=-18.32
offset=784
pitch_keycenter=g5
sample=Alto_trill_semitone_MF_G5.opus
</region>
</group>

<group>
group_label=Group_91-127
lpc_hicc1=127
lpc_locc1=85

<region>
hikey=a3
hivel=127
lokey=g#3
loop_end=284112
loop_mode=loop_continuous
loop_start=81293
loop_xfade=24280
lovel=1
lpc=cDclQprHxcLzeaJCKzkxwkV3OELsPQ7CuPSkQUBqfMHKQ5VAyFuPQE0HAsBg5gDBnEBoQVO/WMFUCsdAmNomQOZ9K8CLTeo8Z1zkP5nrksCathpARZNfP1Z1nz7gRD+/
lpc_rms=-23.06
offset=1680
pitch_keycenter=a3
sample=Alto_trill_semitone_FF_A3.opus
</region>

<region>
hikey=a4
hivel=127
lokey=g#4
loop_end=284801
loop_mode=loop_continuous
loop_start=81490
loop_xfade=24339
lovel=1
lpc=03SuQXs0SsKosiZCsNe6wVR5v0EKGKnBvV1QQTY/z8D3hrs+qL6RQBUWU8CK3ozAyXUXQdpBCsGf4D5Aa1EQQLIuHMDKLN4/BVXSv/yTFUBLTV3ASCutQBFtwMAIeDBA
lpc_rms=-21.32
offset=1013
pitch_keycenter=a4
sample=Alto_trill_semitone_FF_A4.opus
</region>

<region>
hikey=a5
hivel=127
lokey=g#5
loop_end=286617
loop_mode=loop_continuous
loop_start=82009
loop_xfade=24495
lovel=1
lpc=j7FuQXF2mcFPDf1AJvY3wIuUskDmshjAGhENQIcB4b/JX4++eUECQA91EkBh5wfATqTxPjXp8b8E8AFAeyOFQON6SMDWQIE/TaBrv42Orj9085E/hiI2P7Fsqb/OggO/
lpc_rms=-16.26
offset=4420
pitch_keycenter=a5
sample=Alto_trill_semitone_FF_A5.opus
</region>

<region>
hikey=b3
hivel=127
lokey=a#3
loop_end=285480
loop_mode=loop_continuous
loop_start=81684
loop_xfade=24397
lovel=1
lpc=sKUPQuAMrsJ8o41CpxYPwsScIEIakP/Br4lxQUJWjME133FBI1upwIBd90A8foPBCJWfQQ+/k8Gv2hNBiF3hP2IxKsDB3yu/ikEaQAyAcMDnbTZAf2YbvrBepb9uLz0/
lpc_rms=-21.39
offset=1668
pitch_keycenter=b3
sample=Alto_trill_semitone_FF_B3.opus
</region>

<region>
hikey=b4
hivel=127
lokey=a#4
loop_end=288467
loop_mode=loop_continuous
loop_start=82539
loop_xfade=24653
lovel=1
lpc=vFa3QZ6AUcLkTyhCfQCzwU9myEGq9szBqxiaQZrqXcEsIglBxyNwwOg/YEBvHdbAasMFQUmu68DbDhNAu2xUQPoGYsD1deA/RXLvPQVSKT5F1xHAwsKPQPE6ycBidnBA
lpc_rms=-19.59
offset=4817
pitch_keycenter=b4
sample=Alto_trill_semitone_FF_B4.opus
</region>

<region>
hikey=b5
hivel=127
lokey=a#5
loop_end=287855
loop_mode=loop_continuous
loop_start=82364
loop_xfade=24600
lovel=1
lpc=Lmw3QaiSVsEXId5AXAQhwO3oVUDK04G/K26fP6mXe79ON5w/aEunPz0Bzj8v5VfAkXUYQH5Ylz8gPb67MqKHP02HoL9sPYo/Y5XfP15QZz4L1Uu/3tkIQAk5hMDiHs8/
lpc_rms=-17.13
offset=3837
pitch_keycenter=b5
sample=Alto_trill_semitone_FF_B5.opus
</region>

<region>
hikey=c#4
hivel=127
lokey=c4
loop_end=283571
loop_mode=loop_continuous
loop_start=81138
loop_xfade=24234
lovel=1
lpc=LOrmQQgmjsIK7WlCKGLYwfe3/kGCqgTCH3yeQWDeQMHDCfE/3KoKQahlwMDkNbLAVAo8QXGQH8FVdVtAsZB9QNaXk8ANjqY/XvzEP1moQr8lKIHAmfNDQN5xdT/c3TG/
lpc_rms=-21.87
offset=1618
pitch_keycenter=c#4
sample=Alto_trill_semitone_FF_C#4.opus
</region>

<region>
hikey=c#5
hivel=127
lokey=c5
loop_end=285812
loop_mode=loop_continuous
loop_start=81779
loop_xfade=24426
lovel=1
lpc=x6WQQRifDMIIDbFBIEcwwVZgdUGd50XBbqsfQbPwKcG6dsFAqEOlvkLe7D+i46/AiviwQNXhjsCvpLM/5GI2QCfPgsAnWjZAbL5Pv48ueEC5dCPAU9kPPXE/scA3Nq9A
lpc_rms=-21.29
offset=2785
pitch_keycenter=c#5
sample=Alto_trill_semitone_FF_C#5.opus
</region>

<region>
hikey=c#6
hivel=127
lokey=c6
loop_end=282975
loop_mode=loop_continuous
loop_start=80967
loop_xfade=24183
lovel=1
lpc=kYuRQZhmRcHJPKY/FI9tv3uqkEA1ZTU+qVEGQJdfmUCLs4a/xHufQJfrEEA/H6M7sU2ZQDmF4j+104s+sCmwQP91bD5qPiFAsPdAQHFZdj+Ihb3AXkOWP3uOjkAx0ZRA
lpc_rms=-14.07
offset=943
pitch_keycenter=C#6
sample=Alto_trill_semitone_FF_C#6.opus
</region>

<region>
hikey=d#4
hivel=127
lokey=d4
loop_end=287023
loop_mode=loop_continuous
loop_start=82126
loop_xfade=24529
lovel=1
lpc=66vZQXWMfsJbuEFCjdK0wegr9kHp0gHCmUu7QfFljsHiR8BA6cxIQE0mNb+AXabAJrTaQLZaaMBH6Qm/3/XTQHWIIcFp8NNAW2ZKwPaamUCWovHAfwLTQFe4bsAdXa8/
lpc_rms=-19.51
offset=1159
pitch_keycenter=d#4
sample=Alto_trill_semitone_FF_D#4.opus
</region>

<region>
hikey=d#5
hivel=127
lokey=d5
loop_end=280569
loop_mode=loop_continuous
loop_start=80279
loop_xfade=23978
lovel=1
lpc=bs/7QQlUXcJdivhB+CNWwZnookFtn4rBPBtSQTfn0MDBN8HAfjUwQV0+i753Zf3AvgDmQIy01sCYlKpACWllvgD+CL9WMitA3QoxQETTU8CK1afAZyTiQKvUr8ALeqJA
lpc_rms=-13.50
offset=2043
pitch_keycenter=d#5
sample=Alto_trill_semitone_FF_D#5.opus
</region>

<region>
hikey=f4
hivel=127
lokey=e4
loop_end=282768
loop_mode=loop_continuous
loop_start=80908
loop_xfade=24166
lovel=1
lpc=f8sVQs/qusKFxqVCFvwywhtTOkIjTUjCs5cSQrdblsFQWhe/GaIlQcdsxMABBJrAakFDQYLpKsGqKVZApT7dQEQcJ8Gfiu5APP/ewLejBUHoih3BuFQrQV3h5MA5A/0/
lpc_rms=-15.73
offset=1841
pitch_keycenter=f4
sample=Alto_trill_semitone_FF_F4.opus
</region>

<region>
hikey=f5
hivel=127
lokey=e5
loop_end=284243
loop_mode=loop_continuous
loop_start=81330
loop_xfade=24292
lovel=1
lpc=lXY9Qj4AssIFKV9CM5vAwTZD4EHdp6XB/4FYQR7wOj5sGH/B3d+PQf2kFcEw6MHAfiWOQZesf8HUpQxBP0OzQFXl5r8IPADBzEEoP0t+c0A/tM6/SDqRQJ2P9z+5VjzA
lpc_rms=-8.00
offset=1240
pitch_keycenter=f5
sample=Alto_trill_semitone_FF_F5.opus
</region>

<region>
hivel=127
key=g3
loop_end=286003
loop_mode=loop_continuous
loop_start=81834
loop_xfade=24442
lovel=1
lpc=WkwsQtjk0cJR1p5CIHLIwT0V9EEWAQ3CbISdQXOLXsG+agZBUJ7MPpE5nz+rZRzBtv4pQaUxtMBoiRnAVglGQe91NcGRcyZA7Z4bQITYrMDddrtA7BugwHd8kECufeW/
lpc_rms=-28.20
sample=Alto_trill_semitone_FF_G3.opus
</region>

<region>
hikey=g4
hivel=127
lokey=f#4
loop_end=282902
loop_mode=loop_continuous
loop_start=80946
loop_xfade=24177
lovel=1
lpc=PrkFQr3opsJsf5JC9PIUwoZYDUJ8qwvCH9u+QV7ck8Hn4TpB30SpwLiDI0EwtprBIB2pQW3JkMEzk1lBl2xIwDU4icAoUclAlGALwamqWkB1yXlAoWPQvY/wvcBlSWlA
lpc_rms=-17.20
offset=506
pitch_keycenter=g4
sample=Alto_trill_semitone_FF_G4.opus
</region>

<region>
hikey=g5
hivel=127
lokey=f#5
loop_end=281916
loop_mode=loop_continuous
loop_start=80664
loop_xfade=24093
lovel=1
lpc=fJDTQX53HcLVV4pBQHeewDz1IEEbfPTAOu/GQCj9Qr/RPpvAXiLFQFngmD+MOavAlKylQKbHCcBpLr++C7exQCgCtsDOIFBAK6eYPgJbeD8JnM+/TS4aQORQBkB3ERTA
lpc_rms=-12.06
offset=998
pitch_keycenter=g5
sample=Alto_trill_semitone_FF_G5.opus
</region>
</group>